<?xml version="1.0" encoding="UTF-8"?>
<svg width="512pt" height="512pt" version="1.1" viewBox="0 0 512 512" xmlns="http://www.w3.org/2000/svg">
 <path d="m23.551 281.6 150.02 150.02c13.824 13.824 36.863 13.824 50.688 0 13.824-13.824 13.824-36.863 0-50.688l-88.574-89.09h327.68c19.969 0 35.84-15.871 35.84-35.84s-15.871-35.84-35.84-35.84h-327.68l88.574-88.574c13.824-13.824 13.824-36.863 0-50.688-7.168-7.168-16.383-10.754-25.602-10.754-9.2148 0-18.434 3.5859-25.602 10.754l-149.5 149.5c-6.6562 6.6562-10.754 15.871-10.754 25.602 0.003906 9.7266 3.5859 18.945 10.754 25.602z" fill="#94a3b8"/>
</svg>
