<?xml version="1.0" encoding="UTF-8"?>
<svg id="Layer_1" data-name="Layer 1" xmlns="http://www.w3.org/2000/svg" version="1.1" viewBox="0 0 512 512">
  <defs>
    <style>
      .cls-1 {
        fill: #94a3b8;
        fill-rule: evenodd;
        stroke-width: 0px;
      }
    </style>
  </defs>
  <path class="cls-1" d="M20,20c11.9-11.9,31.4-11.9,43.3,0l192.7,192.7L448.7,20c11.9-11.9,31.4-11.9,43.3,0,11.9,11.9,11.9,31.4,0,43.3l-192.7,192.7,192.7,192.7c11.9,11.9,11.9,31.4,0,43.3-11.9,11.9-31.4,11.9-43.3,0l-192.7-192.7L63.3,492c-11.9,11.9-31.4,11.9-43.3,0-11.9-11.9-11.9-31.4,0-43.3l192.7-192.7L20,63.3c-11.9-11.9-11.9-31.4,0-43.3Z"/>
</svg>