<?xml version="1.0" encoding="UTF-8"?>
<svg id="Layer_1" data-name="Layer 1" xmlns="http://www.w3.org/2000/svg" version="1.1" viewBox="0 0 436.8 436.8">
  <defs>
    <style>
      .cls-1 {
        fill: #7cc170;
        stroke-width: 0px;
      }
    </style>
  </defs>
  <path class="cls-1" d="M5.1,99.9c0-44.7,0-67,13.9-80.9C32.9,5.1,55.2,5.1,99.9,5.1h47.4c22.3,0,33.5,0,40.5,6.9,6.9,6.9,6.9,18.1,6.9,40.5v142.2c0,22.3,0,33.5-6.9,40.5-6.9,6.9-18.1,6.9-40.5,6.9H52.5c-22.3,0-33.5,0-40.5-6.9-6.9-6.9-6.9-18.1-6.9-40.5v-94.8Z"/>
  <path class="cls-1" d="M242.1,242.1c0-22.3,0-33.5,6.9-40.5,6.9-6.9,18.1-6.9,40.5-6.9h94.8c22.3,0,33.5,0,40.5,6.9,6.9,6.9,6.9,18.1,6.9,40.5v94.8c0,44.7,0,67-13.9,80.9-13.9,13.9-36.2,13.9-80.9,13.9h-47.4c-22.3,0-33.5,0-40.5-6.9-6.9-6.9-6.9-18.1-6.9-40.5v-142.2Z"/>
  <path class="cls-1" d="M5.1,336.9c0-22.3,0-33.5,6.9-40.5,6.9-6.9,18.1-6.9,40.5-6.9h94.8c22.3,0,33.5,0,40.5,6.9,6.9,6.9,6.9,18.1,6.9,40.5v47.4c0,22.3,0,33.5-6.9,40.5-6.9,6.9-18.1,6.9-40.5,6.9h-47.4c-44.7,0-67,0-80.9-13.9-13.9-13.9-13.9-36.2-13.9-80.9h0Z"/>
  <path class="cls-1" d="M242.1,52.5c0-22.3,0-33.5,6.9-40.5,6.9-6.9,18.1-6.9,40.5-6.9h47.4c44.7,0,67,0,80.9,13.9,13.9,13.9,13.9,36.2,13.9,80.9s0,33.5-6.9,40.5c-6.9,6.9-18.1,6.9-40.5,6.9h-94.8c-22.3,0-33.5,0-40.5-6.9-6.9-6.9-6.9-18.1-6.9-40.5v-47.4Z"/>
</svg>