<?xml version="1.0" encoding="UTF-8"?>
<svg width="512pt" height="512pt" version="1.1" viewBox="0 0 512 512" xmlns="http://www.w3.org/2000/svg">
 <path d="m131.2 256c0 34.758-28.176 62.934-62.934 62.934s-62.934-28.176-62.934-62.934 28.176-62.934 62.934-62.934 62.934 28.176 62.934 62.934" fill="#94a3b8"/>
 <path d="m318.93 256c0 34.758-28.176 62.934-62.934 62.934s-62.934-28.176-62.934-62.934 28.176-62.934 62.934-62.934 62.934 28.176 62.934 62.934" fill="#94a3b8"/>
 <path d="m506.67 256c0 34.758-28.176 62.934-62.934 62.934s-62.934-28.176-62.934-62.934 28.176-62.934 62.934-62.934 62.934 28.176 62.934 62.934" fill="#94a3b8"/>
</svg>
