<?xml version="1.0" encoding="UTF-8"?>
<svg id="Layer_1" data-name="Layer 1" xmlns="http://www.w3.org/2000/svg" version="1.1" viewBox="0 0 512 512">
  <defs>
    <style>
      .cls-1 {
        fill: #94a3b8;
        stroke-width: 0px;
      }
    </style>
  </defs>
  <path class="cls-1" d="M377.4,230.4L227.4,80.4c-13.8-13.8-36.9-13.8-50.7,0-13.8,13.8-13.8,36.9,0,50.7l88.6,89.1H59.4c-20,0-35.8,15.9-35.8,35.8s15.9,35.8,35.8,35.8h205.9l-88.6,88.6c-13.8,13.8-13.8,36.9,0,50.7,7.2,7.2,16.4,10.8,25.6,10.8s18.4-3.6,25.6-10.8l149.5-149.5c6.7-6.7,10.8-15.9,10.8-25.6s-3.6-18.9-10.8-25.6h0Z"/>
  <rect class="cls-1" x="416.7" y="70" width="71.7" height="371.8" rx="35.8" ry="35.8"/>
</svg>