<?xml version="1.0" encoding="UTF-8"?>
<svg id="Layer_1" data-name="Layer 1" xmlns="http://www.w3.org/2000/svg" version="1.1" viewBox="0 0 404.9 413">
  <defs>
    <style>
      .cls-1 {
        fill: #94a3b8;
        stroke-width: 0px;
      }
    </style>
  </defs>
  <path class="cls-1" d="M293.3,101.5c-6-6-15.7-6-21.7,0-6,6-6,15.7,0,21.7l67.9,68h-205.5c-8.5,0-15.4,6.9-15.4,15.4s6.9,15.4,15.4,15.4h205.5l-68,67.9c-6,6-6,15.7,0,21.7,3,3,6.9,4.5,10.9,4.5s7.9-1.5,10.9-4.5l94.1-94.1c6-6,6-15.7,0-21.7l-94.1-94.2Z"/>
  <path class="cls-1" d="M202.5,145.1c8.5,0,15.4-6.9,15.4-15.4v-34.9c0-25.4-17.1-47.8-41.6-54.5L84.7,10.8c-.3-.1-.5-.2-.8-.3-17-4.5-34.9-.9-48.8,9.9-13.9,10.8-22,27.2-22,44.8v282.6c0,17.6,8,33.9,22,44.7,10,7.7,22,11.8,34.3,11.8s9.7-.6,14.5-1.9c.3,0,.5-.2.8-.3l91.5-29.5c24.5-6.7,41.6-29,41.6-54.5v-34.9c0-8.5-6.8-15.4-15.3-15.4s-15.4,6.9-15.4,15.4v34.9c0,11.7-7.9,21.9-19.1,24.9-.3,0-.5.2-.8.3l-91.5,29.4c-7.7,1.9-15.6.3-21.9-4.6-6.3-5-10-12.4-10-20.4V65.3c0-8,3.6-15.5,10-20.4,6.2-4.8,14.2-6.5,21.9-4.6l91.5,29.4c.3.1.5.2.8.3,11.3,3,19.1,13.2,19.1,24.9v34.9c0,8.5,6.9,15.4,15.4,15.4h0Z"/>
</svg>