<?xml version="1.0" encoding="UTF-8"?>
<svg id="Layer_1" data-name="Layer 1" xmlns="http://www.w3.org/2000/svg" version="1.1" viewBox="0 0 512 512">
  <defs>
    <style>
      .cls-1 {
        fill: #94a3b8;
        stroke-width: 0px;
      }
    </style>
  </defs>
  <path class="cls-1" d="M233.1,483c64.5,0,126.1-27.6,169.2-75.7,7.7-8.6,6.9-21.7-1.6-29.4-8.6-7.7-21.7-6.9-29.4,1.6-35.1,39.3-85.4,61.8-138.1,61.8-102.2,0-185.4-83.2-185.4-185.4S130.9,70.6,233.1,70.6s158.5,59.1,179.2,138.8l-21.7-16.5c-9.2-7-22.2-5.1-29.2,4-6.9,9.2-5.1,22.2,4,29.2l61.3,46.4c.1,0,.3.1.4.2,1.5,1.1,3.2,1.9,4.9,2.6.5.2,1,.3,1.5.5,1.6.5,3.3.8,5,.8.2,0,.5.1.7.1,1,0,2,0,3-.2.3,0,.6-.2.9-.2.3,0,.6-.2.9-.2,1-.2,2-.5,3-.9.3-.1.5-.2.8-.4,1-.4,1.9-.9,2.8-1.5.2-.1.4-.3.6-.5.9-.6,1.7-1.3,2.5-2.1.2-.2.3-.4.5-.6.6-.6,1.2-1.2,1.7-1.9l45.9-62.7c6.8-9.3,4.8-22.3-4.5-29.1-9.3-6.8-22.3-4.8-29.1,4.5l-14.9,20.4c-24.5-98.9-114-172.5-220.4-172.5S6.1,130.8,6.1,256s101.8,227,227,227h0Z"/>
</svg>