<?xml version="1.0" encoding="UTF-8"?>
<svg xmlns="http://www.w3.org/2000/svg" version="1.1" viewBox="0 0 512 512">
  <defs>
    <style>
      .cls-1 {
        fill: #94a3b8;
      }
    </style>
  </defs>
  <!-- Generator: Adobe Illustrator 28.6.0, SVG Export Plug-In . SVG Version: 1.2.0 Build 709)  -->
  <g>
    <g id="Layer_1">
      <path class="cls-1" d="M357.7,77.4c12.2,0,22,9.8,22,22v334.8c-1.6,1-127.8-81.3-128-81-.9-.6-2.1-.6-3.1,0-.2-.2-114.4,81.9-116.2,81V99.4c0-12.2,9.8-22,22-22h203.4M357.7,50.3h-203.4c-27.1,0-49.1,22-49.1,49.1v334.8c-.6,21.6,25.8,35.3,43.2,22.5l102.5-71.8,113.9,72.5c17.5,11.7,42.7-2,42.1-23.1V99.5c0-27.1-22.1-49.2-49.2-49.2h0Z"/>
    </g>
  </g>
</svg>