<?xml version="1.0" encoding="UTF-8"?>
<svg xmlns="http://www.w3.org/2000/svg" version="1.1" viewBox="0 0 512 512">
  <defs>
    <style>
      .cls-1 {
        fill: #95a3b8;
      }
    </style>
  </defs>
  <!-- Generator: Adobe Illustrator 28.6.0, SVG Export Plug-In . SVG Version: 1.2.0 Build 709)  -->
  <g>
    <g id="Layer_1">
      <path class="cls-1" d="M495.9,468.9l-123.8-123.8c29.5-35.2,47.1-80.8,47.1-130,0-113.4-92.2-205.1-205.1-205.1S9.7,101.8,9.7,214.7s91.7,205.1,204.5,205.1,94.8-17.6,130-47.1l123.8,123.8c3.6,3.6,8.8,5.7,14,5.7s9.8-2.1,14-5.7c7.8-7.8,7.8-20.2,0-27.4ZM48.5,214.7c0-91.1,74.1-165.7,165.7-165.7s165.7,74.6,165.7,165.7-74.1,165.7-165.7,165.7S48.5,306.3,48.5,214.7Z"/>
    </g>
  </g>
</svg>