<?xml version="1.0" encoding="UTF-8"?>
<svg id="Layer_1" data-name="Layer 1" xmlns="http://www.w3.org/2000/svg" version="1.1" viewBox="0 0 512 512">
  <defs>
    <style>
      .cls-1 {
        fill: #7cc170;
        stroke-width: 0px;
      }
    </style>
  </defs>
  <path class="cls-1" d="M332.8,267.8c-35.8,0-65,29.2-65,65s29.2,65,65,65,65.5-28.7,65.5-65-29.2-65-65.5-65ZM332.8,375.8c-23.6,0-42.5-18.9-42.5-42.5s18.9-42.5,42.5-42.5,42.5,18.9,42.5,42.5-18.9,42.5-42.5,42.5Z"/>
  <path class="cls-1" d="M478.7,296.5l-28.2-3.1c-2-5.6-4.1-10.8-6.7-15.9l17.9-22c7.2-9.2,6.7-22-1.5-30.2l-19.5-19.5c-8.2-8.2-21-8.7-30.2-1.5l-22,17.9c-5.1-2.6-10.8-4.6-15.9-6.7l-3.1-28.2c-1-11.8-10.8-20.5-22.5-20.5h-28.2c-11.8,0-21.5,8.7-22.5,20.5l-3.1,28.2c-5.1,1.5-10.8,4.1-15.9,6.7l-22-17.9c-9.2-7.2-22-6.7-30.2,1.5l-19.5,19.5c-8.2,8.2-8.7,21-1.5,30.2l17.9,22c-2.6,5.1-4.6,10.2-6.7,15.9l-28.7,3.1c-11.8,1-20.5,10.8-20.5,22.5v28.2c0,11.8,8.7,21.5,20.5,22.5l28.7,3.1c2,5.6,4.1,10.8,6.7,15.9l-17.9,22c-7.2,9.2-6.7,22,1.5,30.2l20,20c8.2,8.2,21,8.7,30.2,1.5l22-17.9c5.1,2.6,10.2,4.6,15.9,6.7l3.1,28.7c1,11.3,10.8,20,22.5,20h28.2c11.8,0,21.5-8.7,22.5-20.5l3.1-28.7c5.6-2,10.8-4.1,15.9-6.7l22,17.9c9.2,7.2,22,6.7,30.2-1.5l19.5-19.5c8.2-8.2,8.7-21,1.5-30.2l-17.9-22c2.6-5.1,4.6-10.2,6.7-15.9l28.7-3.1c11.8-1,20.5-10.8,20.5-22.5v-28.2c-1-11.3-9.7-21-21.5-22.5h0ZM476.7,347.1l-30.2,3.1c-7.7,1-14.8,6.1-16.9,13.8-1.5,5.1-3.6,10.2-6.1,15.4-3.6,7.2-2.6,15.9,2,22l18.9,23.6-20,20-23.6-18.9c-6.1-5.1-14.8-5.6-22-2-4.6,2.6-9.7,4.6-15.4,6.1-7.7,2.6-13.3,9.2-13.8,16.9l-3.1,30.2h-28.2l-3.1-30.2c-1-7.7-6.1-14.8-13.8-16.9-5.1-1.5-10.2-3.6-15.4-6.1-3.1-1.5-6.1-2-9.2-2-4.6,0-9.2,1.5-12.8,4.6l-23.6,18.9-20-20,18.9-23.6c5.1-6.1,5.6-14.8,2-22-2.6-4.6-4.6-9.7-6.1-15.4-2.6-7.7-9.2-13.3-16.9-13.8l-29.2-3.6v-28.2l30.2-3.1c7.7-1,14.3-6.1,16.9-13.8,1.5-5.1,3.6-10.2,6.1-15.4,3.6-7.2,2.6-15.9-2-22l-18.9-23.6,20-20,23.6,18.9c6.1,5.1,14.8,5.6,22,2,5.1-2.6,10.2-4.6,14.8-6.1,7.7-2.6,13.3-9.2,14.3-16.9l3.1-30.2h28.2l3.1,30.2c1,7.7,6.1,14.8,14.3,16.9,5.1,1.5,9.7,3.6,14.8,6.1,7.2,3.6,15.9,2.6,22-2l23.6-18.9,20,19.5-18.9,23.6c-5.1,6.1-5.6,14.8-2,22,2.6,4.6,4.6,9.7,6.1,15.4,2.6,7.7,9.2,13.3,16.9,13.8l30.2,3.1v28.7s-1,0-1,0Z"/>
  <path class="cls-1" d="M172,233.5c2-6.1-1-12.3-7.2-14.3-17.4-5.6-28.7-22-28.7-40.4s18.9-42.5,42.5-42.5,34.3,11.8,40.4,28.7c2,6.1,8.2,9.2,14.3,7.2,6.1-2,9.2-8.2,7.2-14.3-8.7-26.6-33.8-44-61.4-44s-65,29.2-65,65,17.9,52.7,44,61.4c1,.5,2.6.5,3.6.5,4.6.5,8.7-2.6,10.2-7.2h0Z"/>
  <path class="cls-1" d="M148,275.5c-5.1-1.5-10.2-3.6-14.8-6.1-7.2-3.6-15.9-3.1-22,2l-24.1,18.9-19.5-20,18.9-23.6c5.1-6.1,5.6-14.8,2.6-21.5-3.1-6.1-4.6-10.8-6.1-15.4-2.6-7.7-9.2-12.8-16.9-13.8l-30.2-3.1v-28.2l30.2-3.1c7.7-1,14.3-6.1,17.4-14.3,1.5-4.1,3.1-9.2,6.1-14.8,3.6-7.2,2.6-15.9-2-22l-18.9-23.6,20-20,23,18.9c6.1,5.1,14.8,6.1,22,2.6,4.6-2,9.7-4.6,15.4-6.1,7.7-2.6,13.3-9.2,14.3-16.9l3.1-30.2h28.2l3.1,30.2c1,7.7,6.1,14.3,14.3,17.4,4.6,1.5,9.2,3.6,14.8,6.1,7.2,3.6,15.9,3.1,22-2l23.6-18.9,20,20-21,22.5c-5.1,6.1-5.6,14.8-2,22,2.6,4.6,4.6,9.7,6.1,15.4,2,6.1,8.2,9.2,14.3,7.2s9.2-8.2,7.2-14.3c-2-6.1-4.6-11.8-7.2-16.9l17.9-22c7.2-9.2,6.1-22-1.5-30.2l-20-20.5c-8.2-8.2-21.5-8.7-30.2-1.5l-22,17.9c-5.6-3.1-11.3-5.1-15.9-6.7l-3.1-28.2c-1-11.8-10.8-20.5-22.5-20.5h-28.2c-11.8,0-21.5,8.7-22.5,20.5l-2.6,28.7c-5.6,2-10.8,4.1-15.9,6.7l-22-17.9c-8.7-7.2-22-6.7-30.2,1.5l-19.5,20c-8.2,8.2-8.7,21.5-1.5,30.2l17.9,22c-3.1,6.1-5.1,11.3-6.1,15.9l-28.7,3.1c-11.3,1.5-20,11.3-20,22.5v28.2c0,11.3,8.7,21,20,22.5l28.7,3.1c1.5,4.6,3.6,9.7,6.1,15.9l-17.9,21c-7.7,9.2-6.7,22,1.5,30.2l20,20c4.6,4.1,10.2,6.1,15.9,6.1s10.2-1.5,14.3-5.1l22-17.9c5.6,2.6,11.3,5.1,17.4,6.7,6.1,2,12.3-1.5,14.3-7.2,1.5-5.1-2-11.3-7.7-13.3h0Z"/>
</svg>