<?xml version="1.0" encoding="UTF-8"?>
<svg width="512pt" height="512pt" version="1.1" viewBox="0 0 512 512" xmlns="http://www.w3.org/2000/svg">
 <g fill="#94a3b8">
  <path d="m332.8 267.78c-35.84 0-65.023 29.184-65.023 65.023 0 35.84 29.184 65.023 65.023 65.023 35.84 0 65.535-28.672 65.535-65.023 0-35.84-29.184-65.023-65.535-65.023zm0 108.03c-23.551 0-42.496-18.945-42.496-42.496s18.945-42.496 42.496-42.496 42.496 18.945 42.496 42.496-18.945 42.496-42.496 42.496z"/>
  <path d="m478.72 296.45-28.16-3.0742c-2.0469-5.6328-4.0977-10.754-6.6562-15.871l17.922-22.016c7.168-9.2148 6.6562-22.016-1.5352-30.207l-19.457-19.457c-8.1914-8.1914-20.992-8.7031-30.207-1.5352l-22.016 17.922c-5.1211-2.5586-10.754-4.6094-15.871-6.6562l-3.0703-28.16c-1.0234-11.777-10.754-20.48-22.527-20.48h-28.16c-11.777 0-21.504 8.7031-22.527 20.48l-3.0703 28.16c-5.1211 1.5352-10.754 4.0977-15.871 6.6562l-22.016-17.922c-9.2148-7.168-22.016-6.6562-30.207 1.5352l-19.465 19.457c-8.1914 8.1914-8.7031 20.992-1.5352 30.207l17.922 22.016c-2.5586 5.1211-4.6094 10.238-6.6562 15.871l-28.672 3.0703c-11.777 1.0234-20.48 10.754-20.48 22.527v28.16c0 11.777 8.7031 21.504 20.48 22.527l28.672 3.0703c2.0469 5.6328 4.0977 10.754 6.6562 15.871l-17.922 22.016c-7.168 9.2148-6.6562 22.016 1.5352 30.207l19.969 19.969c8.1914 8.1914 20.992 8.7031 30.207 1.5352l22.016-17.922c5.1211 2.5586 10.238 4.6094 15.871 6.6562l3.0703 28.672c1.0234 11.266 10.754 19.969 22.527 19.969h28.16c11.777 0 21.504-8.7031 22.527-20.48l3.0703-28.672c5.6328-2.0469 10.754-4.0977 15.871-6.6562l22.016 17.922c9.2148 7.168 22.016 6.6562 30.207-1.5352l19.457-19.457c8.1914-8.1914 8.7031-20.992 1.5352-30.207l-17.922-22.016c2.5586-5.1211 4.6094-10.238 6.6562-15.871l28.672-3.0703c11.777-1.0234 20.48-10.754 20.48-22.527v-28.16c-1.0156-11.262-9.7188-20.988-21.496-22.523zm-2.0469 50.688-30.207 3.0703c-7.6797 1.0234-14.848 6.1445-16.895 13.824-1.5352 5.1211-3.5859 10.238-6.1445 15.359-3.5859 7.168-2.5586 15.871 2.0469 22.016l18.945 23.551-19.969 19.969-23.551-18.945c-6.1445-5.1211-14.848-5.6328-22.016-2.0469-4.6094 2.5586-9.7266 4.6094-15.359 6.1445-7.6797 2.5586-13.312 9.2148-13.824 16.895l-3.0703 30.207h-28.16l-3.0703-30.207c-1.0234-7.6797-6.1445-14.848-13.824-16.895-5.1211-1.5352-10.238-3.5859-15.359-6.1445-3.0703-1.5352-6.1445-2.0469-9.2148-2.0469-4.6094 0-9.2148 1.5352-12.801 4.6094l-23.551 18.945-19.969-19.969 18.945-23.551c5.1211-6.1445 5.6328-14.848 2.0469-22.016-2.5586-4.6094-4.6094-9.7266-6.1445-15.359-2.5586-7.6797-9.2148-13.312-16.895-13.824l-29.191-3.5859v-28.16l30.207-3.0703c7.6797-1.0234 14.336-6.1445 16.895-13.824 1.5352-5.1211 3.5859-10.238 6.1445-15.359 3.5859-7.168 2.5586-15.871-2.0469-22.016l-18.945-23.551 19.969-19.969 23.551 18.945c6.1445 5.1211 14.848 5.6328 22.016 2.0469 5.1211-2.5586 10.238-4.6094 14.848-6.1445 7.6797-2.5586 13.312-9.2148 14.336-16.895l3.0703-30.207h28.16l3.0703 30.207c1.0234 7.6797 6.1445 14.848 14.336 16.895 5.1211 1.5352 9.7266 3.5859 14.848 6.1445 7.168 3.5859 15.871 2.5586 22.016-2.0469l23.551-18.945 19.969 19.457-18.945 23.551c-5.1211 6.1445-5.6328 14.848-2.0469 22.016 2.5586 4.6094 4.6094 9.7266 6.1445 15.359 2.5586 7.6797 9.2148 13.312 16.895 13.824l30.207 3.0703 0.007812 28.672z"/>
  <path d="m172.03 233.47c2.0469-6.1445-1.0234-12.289-7.168-14.336-17.406-5.6328-28.672-22.016-28.672-40.449 0-23.551 18.945-42.496 42.496-42.496 18.434 0 34.305 11.777 40.449 28.672 2.0469 6.1445 8.1914 9.2148 14.336 7.168 6.1445-2.0469 9.2148-8.1914 7.168-14.336-8.7031-26.625-33.793-44.031-61.441-44.031-35.84 0-65.023 29.184-65.023 65.023 0 28.16 17.922 52.734 44.031 61.441 1.0234 0.51172 2.5586 0.51172 3.5859 0.51172 4.6055 0.51172 8.7031-2.5625 10.238-7.168z"/>
  <path d="m147.97 275.46c-5.1211-1.5352-10.238-3.5859-14.848-6.1445-7.168-3.5859-15.871-3.0703-22.016 2.0469l-24.066 18.945-19.457-19.969 18.945-23.551c5.1211-6.1445 5.6328-14.848 2.5586-21.504-3.0703-6.1445-4.6094-10.754-6.1445-15.359-2.5586-7.6797-9.2148-12.801-16.895-13.824l-30.207-3.0703v-28.16l30.207-3.0703c7.6797-1.0234 14.336-6.1445 17.406-14.336 1.5352-4.0977 3.0703-9.2148 6.1445-14.848 3.5859-7.168 2.5586-15.871-2.0469-22.016l-18.945-23.551 19.969-19.969 23.039 18.945c6.1445 5.1211 14.848 6.1445 22.016 2.5586 4.6094-2.0469 9.7266-4.6094 15.359-6.1445 7.6797-2.5586 13.312-9.2148 14.336-16.895l3.0703-30.207h28.16l3.0703 30.207c1.0234 7.6797 6.1445 14.336 14.336 17.406 4.6094 1.5352 9.2148 3.5859 14.848 6.1445 7.168 3.5859 15.871 3.0703 22.016-2.0469l23.551-18.945 19.969 19.969-20.984 22.523c-5.1211 6.1445-5.6328 14.848-2.0469 22.016 2.5586 4.6094 4.6094 9.7266 6.1445 15.359 2.0469 6.1445 8.1914 9.2148 14.336 7.168s9.2148-8.1914 7.168-14.336c-2.0469-6.1445-4.6094-11.777-7.168-16.895l17.922-22.016c7.168-9.2148 6.1445-22.016-1.5352-30.207l-19.973-20.484c-8.1914-8.1914-21.504-8.7031-30.207-1.5352l-22.016 17.922c-5.6328-3.0703-11.266-5.1211-15.871-6.6562l-3.0703-28.16c-1.0234-11.777-10.754-20.48-22.527-20.48h-28.16c-11.777 0-21.504 8.7031-22.527 20.48l-2.5625 28.672c-5.6328 2.0469-10.754 4.0977-15.871 6.6562l-22.016-17.922c-8.7031-7.168-22.016-6.6562-30.207 1.5352l-19.457 19.969c-8.1914 8.1914-8.7031 21.504-1.5352 30.207l17.922 22.016c-3.0703 6.1445-5.1211 11.266-6.1445 15.871l-28.672 3.0703c-11.266 1.5352-19.969 11.266-19.969 22.527v28.16c0 11.266 8.7031 20.992 19.969 22.527l28.672 3.0703c1.5352 4.6094 3.5859 9.7266 6.1445 15.871l-17.926 21c-7.6797 9.2148-6.6562 22.016 1.5352 30.207l19.969 19.969c4.6094 4.0977 10.238 6.1445 15.871 6.1445 5.1211 0 10.238-1.5352 14.336-5.1211l22.016-17.922c5.6328 2.5586 11.266 5.1211 17.406 6.6562 6.1445 2.0469 12.289-1.5352 14.336-7.168 1.5391-5.1172-2.043-11.262-7.6758-13.309z"/>
 </g>
</svg>
