<?xml version="1.0" encoding="UTF-8"?>
<svg id="Layer_1" xmlns="http://www.w3.org/2000/svg" version="1.1" viewBox="0 0 512 512">
  <!-- Generator: Adobe Illustrator 29.1.0, SVG Export Plug-In . SVG Version: 2.1.0 Build 142)  -->
  <defs>
    <style>
      .st0 {
        fill: #7cc170;
      }
    </style>
  </defs>
  <path class="st0" d="M489.5,469.2H35.7v-108.3l116.5-116.5,94.2,94.2c7.2,7.2,18.7,7.2,25.9,0l180.2-180.2v20.9c0,10.1,8.2,18.3,18.3,18.3h0c10.1,0,18.3-8.2,18.3-18.3v-71.2c0-6.7-5.5-12.2-12.2-12.2h-71.2c-10.1,0-18.3,8.2-18.3,18.3h0c0,10.1,8.2,18.3,18.3,18.3h20.9l-167.2,167.2-94.2-94.2c-7.2-7.2-18.7-7.2-25.9,0l-103.6,103.6V27.6c0-8-5.7-15.3-13.7-16.1-9.1-.9-16.8,6.2-16.8,15.2v457.7c0,8.4,6.8,15.3,15.3,15.3h470c8.9,0,16.1-7.7,15.2-16.8-.8-7.9-8.1-13.7-16.1-13.7h0Z"/>
</svg>