<?xml version="1.0" encoding="UTF-8"?>
<svg id="Layer_1" data-name="Layer 1" xmlns="http://www.w3.org/2000/svg" version="1.1" viewBox="0 0 512 512">
  <defs>
    <style>
      .cls-1 {
        fill: #94a3b8;
        stroke-width: 0px;
      }
    </style>
  </defs>
  <path class="cls-1" d="M134.6,281.5l150,150c13.8,13.8,36.9,13.8,50.7,0,13.8-13.8,13.8-36.9,0-50.7l-88.6-89.1h205.9c20,0,35.8-15.9,35.8-35.8s-15.9-35.8-35.8-35.8h-205.9l88.6-88.6c13.8-13.8,13.8-36.9,0-50.7-7.2-7.2-16.4-10.8-25.6-10.8s-18.4,3.6-25.6,10.8l-149.5,149.5c-6.7,6.7-10.8,15.9-10.8,25.6,0,9.7,3.6,18.9,10.8,25.6h0Z"/>
  <rect class="cls-1" x="-126.5" y="220.2" width="371.8" height="71.7" rx="35.8" ry="35.8" transform="translate(315.5 196.6) rotate(90)"/>
</svg>