<?xml version="1.0" encoding="UTF-8"?>
<svg width="512pt" height="512pt" version="1.1" viewBox="0 0 512 512" xmlns="http://www.w3.org/2000/svg">
 <g fill="#7cc170">
  <path d="m488.45 174.59h-34.305v-34.305c0-6.1445-5.1211-10.754-10.754-10.754h-34.305v-33.793c0-6.1445-5.1211-10.754-10.754-10.754l-374.78 0.003907c-6.1445 0-10.754 5.1211-10.754 10.754v231.43c0 6.1445 5.1211 10.754 10.754 10.754h34.305v33.793c0 6.1445 5.1211 10.754 10.754 10.754h34.305v34.305c0 6.1445 5.1211 10.754 10.754 10.754h374.27c6.1445 0 10.754-5.1211 10.754-10.754l-0.007812-231.43c0.51172-6.1445-4.6094-10.75-10.238-10.75zm-152.07-68.098c4.6094 25.602 25.09 46.078 50.688 50.688v108.03c-25.602 4.6094-46.078 24.574-50.688 50.688h-65.535c28.16-23.039 46.594-61.441 46.594-104.45s-18.434-81.922-46.594-104.45l65.535 0.003906zm-209.92 104.45c0-57.855 37.887-104.45 84.48-104.45s84.48 47.105 84.48 104.45-37.887 104.45-84.48 104.45c-46.594-0.003906-84.48-46.594-84.48-104.45zm-22.016 0c0 43.52 18.434 81.922 46.594 104.45l-65.539-0.003906c-4.6094-25.602-25.09-46.078-50.688-50.688v-108.03c25.602-4.6094 46.078-24.574 50.688-50.688h65.535c-28.16 23.039-46.59 61.441-46.59 104.96zm-24.578 126.46h318.46c6.1445 0 10.754-5.1211 10.754-10.754v-175.1h23.039v209.41l-352.26 0.003907zm397.31 68.098h-352.25v-23.039h318.46c6.1445 0 10.754-5.1211 10.754-10.754l-0.003907-175.1h23.039z"/>
  <path d="m203.27 174.59h15.871c5.6328 0 10.754 4.0977 12.289 9.2148 0.51172 2.0469 2.5586 3.5859 4.6094 3.5859h12.801c2.5586 0 5.1211-2.5586 4.6094-5.1211-2.5586-15.871-15.359-28.16-31.742-29.184v-12.801c0-2.5586-2.0469-4.6094-4.6094-4.6094h-12.293c-2.5586 0-4.6094 2.0469-4.6094 4.6094v12.801c-18.434 1.5352-33.281 17.406-31.742 36.352 1.0234 18.434 17.406 32.77 35.84 32.77h12.801c8.7031 0 14.848 4.6094 15.359 11.266 1.0234 7.6797-5.1211 13.824-12.801 13.824h-16.895c-5.6328 0-10.754-4.0977-12.289-9.2148-0.51172-2.0469-2.5586-3.5859-4.6094-3.5859h-12.801c-2.5586 0-5.1211 2.5586-4.6094 5.1211 2.5586 15.871 15.359 27.648 31.742 29.184v12.801c0 2.5586 2.0469 4.6094 4.6094 4.6094h12.801c2.5586 0 4.6094-2.0469 4.6094-4.6094v-12.801c18.434-1.5352 33.281-17.406 31.742-36.352-1.0234-18.434-17.406-32.77-35.84-32.77h-15.359c-7.6797 0-13.312-6.6562-12.801-13.824 0.51562-6.6602 6.6602-11.266 13.316-11.266z"/>
 </g>
</svg>
