<?xml version="1.0" encoding="UTF-8"?>
<svg id="Layer_1" data-name="Layer 1" xmlns="http://www.w3.org/2000/svg" version="1.1" viewBox="0 0 418 418">
  <defs>
    <style>
      .cls-1 {
        fill: #f87171;
        fill-rule: evenodd;
        stroke-width: 0px;
      }
    </style>
  </defs>
  <path class="cls-1" d="M291.5,407H126.5c-15.7,0-28.7-12.2-30.4-28.4l-25.1-247.2c-.2-2.4,1.6-4.5,4-4.8,2.5-.2,4.6,1.5,4.9,3.9l25.1,247.2c1.2,11.9,10.2,20.6,21.5,20.6h165c11.2,0,20.3-8.7,21.5-20.6l25.1-247.2c.2-2.4,2.4-4.2,4.9-3.9,2.5.2,4.2,2.4,4,4.8l-25.1,247.2c-1.6,16.2-14.7,28.4-30.4,28.4h0Z"/>
  <path class="cls-1" d="M73.3,90.7c-10.1,0-18.3,8.1-18.3,17.9s8.2,17.9,18.3,17.9h271.5c10.1,0,18.3-8.1,18.3-17.9s-8.2-17.9-18.3-17.9H73.3ZM344.7,135.3H73.3c-15,0-27.3-12-27.3-26.7s12.2-26.7,27.3-26.7h271.5c15,0,27.2,12,27.2,26.7s-12.2,26.7-27.2,26.7h0Z"/>
  <path class="cls-1" d="M156,180l8.4,150c.1,2,.9,3.9,2.4,5.3,2.5,2.6,6.2,3.3,9.5,1.9,3.3-1.4,5.3-4.5,5.1-8.1l-8.4-150c-.1-2.2-1.1-4.2-2.8-5.7-1.7-1.5-3.9-2.2-6.1-2.1-4.7.2-8.3,4.2-8,8.8h0ZM172.8,346.6c-4.6,0-9.1-1.8-12.5-5.3-2.9-2.9-4.6-6.8-4.8-10.9l-8.4-150c-.3-4.5,1.3-8.9,4.4-12.3,3.1-3.4,7.4-5.4,12-5.6,4.6-.2,9.1,1.3,12.6,4.3,3.5,3,5.5,7.2,5.8,11.8l8.4,150c.4,7.2-3.7,13.7-10.5,16.6-2.3,1-4.7,1.4-7,1.4h0Z"/>
  <path class="cls-1" d="M253.5,171.2c-4.5,0-8.2,3.4-8.5,7.9l-8.4,150c-.1,2,.5,3.9,1.8,5.5,2.2,2.8,5.8,3.9,9.3,2.9,3.5-1.1,5.8-3.9,6-7.5l8.4-150c.1-2.2-.6-4.3-2.2-6-1.5-1.7-3.6-2.7-5.8-2.8-.2,0-.3,0-.5,0h0ZM245.1,346.6c-5.3,0-10.3-2.4-13.7-6.7-2.5-3.2-3.8-7.3-3.6-11.3l8.4-150c.5-9.4,8.7-16.6,18.4-16.1,4.6.2,8.9,2.3,12,5.7,3.1,3.4,4.7,7.8,4.4,12.3l-8.4,150c-.4,7.2-5.2,13.2-12.2,15.4-1.7.5-3.5.8-5.2.8h0Z"/>
  <path class="cls-1" d="M287.8,90.7c-2.5,0-4.5-1.9-4.5-4.4v-26.4c0-24.4-20.2-44.2-45.2-44.2h-58.3c-24.9,0-45.2,19.8-45.2,44.2v26.4c0,2.4-2,4.4-4.5,4.4s-4.5-1.9-4.5-4.4v-26.4c0-29.2,24.3-52.9,54.1-52.9h58.3c29.8,0,54.1,23.8,54.1,52.9v26.4c0,2.4-2,4.4-4.5,4.4h0Z"/>
  <path class="cls-1" d="M265.1,90.7c-2.5,0-4.5-1.9-4.5-4.4v-26.4c0-12.1-10.1-22-22.5-22h-58.3c-12.4,0-22.5,9.9-22.5,22v26.4c0,2.4-2,4.4-4.5,4.4s-4.5-1.9-4.5-4.4v-26.4c0-16.9,14.1-30.7,31.4-30.7h58.3c17.3,0,31.4,13.8,31.4,30.7v26.4c0,2.4-2,4.4-4.5,4.4h0Z"/>
</svg>