<?xml version="1.0" encoding="UTF-8"?>
<svg id="Layer_1" data-name="Layer 1" xmlns="http://www.w3.org/2000/svg" version="1.1" viewBox="0 0 512 512">
  <defs>
    <style>
      .cls-1 {
        fill: #94a3b8;
        fill-rule: evenodd;
        stroke-width: 0px;
      }
    </style>
  </defs>
  <path class="cls-1" d="M256,107.2c-100.4,0-193,54.2-242.2,141.7-2.5,4.4-2.5,9.7,0,14.1,49.2,87.5,141.8,141.8,242.2,141.8h0s0,0,0,0c100.4,0,193-54.2,242.1-141.7,2.5-4.4,2.5-9.7,0-14.1-49.2-87.5-141.8-141.7-242.1-141.7h0s0,0,0,0h0ZM256,135.9c87.3,0,168,45.7,213,120.1-45,74.4-125.7,120-213,120.1-87.4,0-168-45.7-213.1-120.1,45-74.3,125.7-120,213-120ZM256,169c-47.9,0-87,39.1-87,87s39.1,87,87,87,87-39.1,87-87-39.1-87-87-87h0ZM256,197.7c32.4,0,58.3,25.9,58.3,58.3s-25.9,58.3-58.3,58.3-58.3-25.9-58.3-58.3,25.9-58.3,58.3-58.3h0Z"/>
</svg>