<?xml version="1.0" encoding="UTF-8" standalone="no"?>
<svg
   data-name="Layer 1"
   viewBox="0 0 16.192856 16.19874"
   x="0px"
   y="0px"
   version="1.1"
   id="svg4"
   sodipodi:docname="notes_slate.svg"
   width="16.192856"
   height="16.19874"
   inkscape:version="1.4 (e7c3feb1, 2024-10-09)"
   xmlns:inkscape="http://www.inkscape.org/namespaces/inkscape"
   xmlns:sodipodi="http://sodipodi.sourceforge.net/DTD/sodipodi-0.dtd"
   xmlns="http://www.w3.org/2000/svg"
   xmlns:svg="http://www.w3.org/2000/svg"
   xmlns:rdf="http://www.w3.org/1999/02/22-rdf-syntax-ns#"
   xmlns:cc="http://creativecommons.org/ns#"
   xmlns:dc="http://purl.org/dc/elements/1.1/">
  <defs
     id="defs4" />
  <sodipodi:namedview
     id="namedview4"
     pagecolor="#ffffff"
     bordercolor="#000000"
     borderopacity="0.25"
     inkscape:showpageshadow="2"
     inkscape:pageopacity="0.0"
     inkscape:pagecheckerboard="0"
     inkscape:deskcolor="#d1d1d1"
     inkscape:zoom="41.894754"
     inkscape:cx="6.766957"
     inkscape:cy="8.0797706"
     inkscape:window-width="1800"
     inkscape:window-height="1024"
     inkscape:window-x="0"
     inkscape:window-y="44"
     inkscape:window-maximized="1"
     inkscape:current-layer="svg4" />
  <title
     id="title1">rounded</title>
  <path
     d="M 13.100995,0.09186098 H 3.1009937 A 3,3 0 0 0 0.10099381,3.091861 v 10 a 3,3 0 0 0 2.99999989,3 h 7.1715713 a 2.00018,2.00018 0 0 0 1.41425,-0.58582 l 3.82836,-3.82843 a 1.99975,1.99975 0 0 0 0.58582,-1.41418 v -7.17157 a 3,3 0 0 0 -3,-3.00000002 z m -2,14.58582002 v -2.58582 a 1.00115,1.00115 0 0 1 1,-1 h 2.58575 z m 4,-4.58582 h -3 a 2,2 0 0 0 -2,2 v 3 H 3.1009937 a 2.0023,2.0023 0 0 1 -2,-2 v -10 a 2.00226,2.00226 0 0 1 2,-2 H 13.100995 a 2.00226,2.00226 0 0 1 2,2 z"
     id="path1"
     style="fill:#94a3b8;fill-opacity:1" />
  <path
     d="M 11.600995,4.091861 H 4.6009937 a 0.5,0.5 0 0 0 0,1 h 7.0000013 a 0.5,0.5 0 0 0 0,-1 z"
     id="path2"
     style="fill:#94a3b8;fill-opacity:1" />
  <path
     d="M 11.600995,7.091861 H 4.6009937 a 0.5,0.5 0 0 0 0,1 h 7.0000013 a 0.5,0.5 0 0 0 0,-1 z"
     id="path3"
     style="fill:#94a3b8;fill-opacity:1" />
  <metadata
     id="metadata4">
    <rdf:RDF>
      <cc:Work
         rdf:about="">
        <dc:title>rounded</dc:title>
      </cc:Work>
    </rdf:RDF>
  </metadata>
</svg>
